<?xml version="1.0" encoding="UTF-8"?>
<!DOCTYPE svg PUBLIC "-//W3C//DTD SVG 1.1//EN" "http://www.w3.org/Graphics/SVG/1.1/DTD/svg11.dtd">
<!-- Creator: CorelDRAW X7 -->
<svg xmlns="http://www.w3.org/2000/svg" xml:space="preserve" width="21.6933in" height="5.99999in" version="1.1" style="shape-rendering:geometricPrecision; text-rendering:geometricPrecision; image-rendering:optimizeQuality; fill-rule:evenodd; clip-rule:evenodd"
viewBox="0 0 21693 6000"
 xmlns:xlink="http://www.w3.org/1999/xlink">
 <defs>
  <style type="text/css">
   <![CDATA[
    .fil0 {fill:#7FC01C}
    .fil1 {fill:#E57716}
   ]]>
  </style>
 </defs>
 <g id="Layer_x0020_1">
  <metadata id="CorelCorpID_0Corel-Layer"/>
  <g id="_1842083614112">
   <g>
    <path class="fil0" d="M1784 746c-473,-223 -855,205 -855,205 1029,-78 1096,361 1096,361 0,0 59,-424 -241,-566z"/>
    <path class="fil0" d="M2280 1349c0,0 -180,-160 -174,-512 6,-353 120,-494 174,-557 55,63 169,204 175,557 6,352 -175,512 -175,512z"/>
    <path class="fil0" d="M2777 746c473,-223 855,205 855,205 -1030,-78 -1096,361 -1096,361 0,0 -59,-424 241,-566z"/>
   </g>
   <g>
    <polygon class="fil1" points="2017,1602 2544,1602 2544,3903 2017,3903 "/>
    <path class="fil1" d="M11032 3736c-99,68 -206,121 -321,160 -116,38 -238,58 -368,58 -166,0 -322,-32 -468,-95 -147,-63 -274,-150 -382,-259 -107,-109 -193,-236 -256,-381 -63,-145 -95,-300 -95,-467 0,-166 32,-322 95,-469 63,-146 149,-273 256,-381 108,-108 235,-193 382,-256 146,-63 302,-95 468,-95 130,0 252,19 368,58 115,38 222,91 321,159l0 -166 513 0 0 2296 -513 0 0 -162zm-689 -1686c-95,0 -186,19 -272,55 -86,37 -161,87 -224,151 -63,63 -113,137 -150,221 -37,85 -56,177 -56,275 0,96 19,187 56,273 37,86 87,161 150,224 63,63 138,113 224,150 86,37 177,56 272,56 99,0 191,-19 275,-56 85,-37 159,-87 222,-150 63,-63 113,-138 150,-224 37,-86 56,-177 56,-273 0,-98 -19,-190 -56,-275 -37,-84 -87,-158 -150,-221 -63,-64 -137,-114 -222,-151 -84,-36 -176,-55 -275,-55z"/>
    <path class="fil1" d="M8398 2674c0,-401 -205,-601 -614,-601 -62,0 -124,9 -185,26 -62,16 -117,41 -167,73 -49,33 -90,72 -122,118 -32,46 -53,100 -62,162l0 1451 -509 0 0 -2301 509 0 0 83c86,-46 178,-80 277,-102 98,-21 185,-32 259,-32 360,0 639,99 838,296 199,197 298,473 298,827l0 1229 -522 0 0 -1229z"/>
    <path class="fil1" d="M6005 3736c-99,68 -206,121 -322,160 -115,38 -238,58 -367,58 -166,0 -323,-32 -469,-95 -146,-63 -273,-150 -381,-259 -108,-109 -193,-236 -256,-381 -64,-145 -95,-300 -95,-467 0,-166 31,-322 95,-469 63,-146 148,-273 256,-381 108,-108 235,-193 381,-256 146,-63 303,-95 469,-95 129,0 252,19 367,58 116,38 223,91 322,159l0 -166 512 0 0 2296 -512 0 0 -162zm-689 -1686c-95,0 -186,19 -272,55 -87,37 -161,87 -225,151 -63,63 -113,137 -150,221 -37,85 -55,177 -55,275 0,96 18,187 55,273 37,86 87,161 150,224 64,63 138,113 225,150 86,37 177,56 272,56 99,0 190,-19 275,-56 85,-37 159,-87 222,-150 63,-63 113,-138 150,-224 37,-86 55,-177 55,-273 0,-98 -18,-190 -55,-275 -37,-84 -87,-158 -150,-221 -63,-64 -137,-114 -222,-151 -85,-36 -176,-55 -275,-55z"/>
    <path class="fil1" d="M3893 2080c-43,3 -86,10 -130,21 -63,15 -121,38 -175,69 -54,31 -100,70 -137,118 -36,48 -60,104 -69,169l0 1441 -503 0 0 -2296 503 0 0 92c90,-46 188,-81 296,-104 80,-17 152,-28 215,-32l0 522z"/>
    <polygon class="fil1" points="1973,3903 1302,3903 527,2997 527,3903 0,3903 0,784 527,784 527,2423 1201,1602 1809,1602 937,2715 "/>
    <g>
     <path class="fil1" d="M21181 3762c-99,68 -206,121 -321,159 -116,39 -238,58 -368,58 -166,0 -322,-32 -469,-95 -146,-63 -273,-149 -381,-259 -108,-109 -193,-236 -256,-381 -63,-144 -95,-300 -95,-466 0,-167 32,-323 95,-469 63,-147 148,-274 256,-381 108,-108 235,-194 381,-257 147,-63 303,-95 469,-95 130,0 252,20 368,58 115,39 222,92 321,160l0 -985 512 0 0 3114 -512 0 0 -161zm-689 -1687c-95,0 -186,19 -272,56 -87,37 -161,87 -224,150 -64,63 -114,137 -151,222 -37,84 -55,176 -55,275 0,95 18,186 55,272 37,86 87,161 151,224 63,63 137,114 224,150 86,37 177,56 272,56 99,0 190,-19 275,-56 85,-36 159,-87 222,-150 63,-63 113,-138 150,-224 37,-86 55,-177 55,-272 0,-99 -18,-191 -55,-275 -37,-85 -87,-159 -150,-222 -63,-63 -137,-113 -222,-150 -85,-37 -176,-56 -275,-56z"/>
     <path class="fil1" d="M17907 3974c-170,0 -328,-31 -474,-92 -146,-62 -273,-146 -381,-252 -108,-106 -193,-232 -254,-379 -62,-146 -93,-304 -93,-473 0,-170 31,-328 93,-474 61,-146 146,-272 254,-379 108,-106 235,-190 381,-252 146,-61 304,-92 474,-92 169,0 327,31 473,92 147,62 274,146 384,252 109,107 195,233 256,379 62,146 93,304 93,474 0,169 -31,327 -93,473 -61,147 -147,273 -256,379 -110,106 -237,190 -384,252 -146,61 -304,92 -473,92zm0 -1880c-93,0 -180,18 -261,55 -82,37 -153,87 -213,148 -60,62 -108,134 -143,217 -36,83 -55,171 -58,264 0,95 17,184 51,268 34,83 81,154 141,214 60,61 132,108 215,144 83,35 172,53 268,53 95,0 185,-18 268,-53 83,-36 154,-83 215,-144 60,-60 107,-131 143,-214 35,-84 53,-173 53,-268 0,-96 -18,-185 -53,-268 -36,-83 -83,-156 -143,-217 -61,-62 -132,-111 -215,-146 -83,-35 -173,-53 -268,-53z"/>
     <path class="fil1" d="M15321 3974c-169,0 -327,-31 -473,-92 -147,-62 -274,-146 -382,-252 -107,-106 -192,-232 -254,-379 -61,-146 -92,-304 -92,-473 0,-170 31,-328 92,-474 62,-146 147,-272 254,-379 108,-106 235,-190 382,-252 146,-61 304,-92 473,-92 170,0 327,31 474,92 146,62 274,146 383,252 110,107 195,233 257,379 61,146 92,304 92,474 0,169 -31,327 -92,473 -62,147 -147,273 -257,379 -109,106 -237,190 -383,252 -147,61 -304,92 -474,92zm0 -1880c-92,0 -179,18 -261,55 -81,37 -152,87 -212,148 -60,62 -108,134 -144,217 -35,83 -54,171 -57,264 0,95 17,184 50,268 34,83 81,154 141,214 60,61 132,108 215,144 83,35 173,53 268,53 96,0 185,-18 268,-53 83,-36 155,-83 215,-144 60,-60 108,-131 143,-214 36,-84 53,-173 53,-268 0,-96 -17,-185 -53,-268 -35,-83 -83,-156 -143,-217 -60,-62 -132,-111 -215,-146 -83,-35 -172,-53 -268,-53z"/>
     <path class="fil1" d="M14224 362c114,31 178,139 340,169 163,30 283,-181 235,-325 -48,-145 -480,-324 -875,-101 -394,223 -900,814 -1217,1717 -139,23 -252,65 -341,118 -199,117 -217,370 -217,370 161,-145 328,-172 460,-171l-2 6c-289,1084 -644,3095 -1265,3360 -620,265 -939,102 -999,-6 -60,-109 -211,-205 -355,-91 -145,115 -103,483 222,564 325,81 1590,75 2252,-1280 462,-945 579,-1802 719,-2494 200,18 428,23 585,-29 301,-100 373,-404 373,-404 -48,94 -331,151 -798,73 -26,-5 -51,-9 -76,-12 40,-154 86,-297 143,-428 288,-665 508,-1114 816,-1036z"/>
    </g>
   </g>
  </g>
 </g>
</svg>
